<svg xmlns="http://www.w3.org/2000/svg" version="1.1" viewBox="-5.0 -10.0 110.0 135.0"  width="24" height="24">
 <path d="m24.617 40.707c1.3203 0.44141 2.4023 1.3438 3.082 2.4375 0.6875 1.1055 0.96484 2.4141 0.67578 3.6641-0.03125 0.13281-0.066406 0.26172-0.10938 0.39062-0.35547 1.0625-1.0977 1.875-2.0547 2.3516-0.94141 0.47266-2.0898 0.61328-3.2617 0.33984-0.16797-0.039063-0.33984-0.085937-0.51172-0.14453-1.3203-0.44141-2.4023-1.3438-3.082-2.4375-0.6875-1.1055-0.96484-2.4141-0.67578-3.6641 0.03125-0.13281 0.066406-0.26172 0.10937-0.39062 0.35547-1.0625 1.0977-1.875 2.0547-2.3516 0.94141-0.47266 2.0898-0.61328 3.2617-0.33984 0.16406 0.039062 0.33594 0.085938 0.51172 0.14453zm22.711-13.055c1.4062 0 2.6797 0.57031 3.6016 1.4922 0.92187 0.92188 1.4922 2.1953 1.4922 3.6016s-0.57031 2.6797-1.4922 3.6016c-0.92188 0.92188-2.1953 1.4922-3.6016 1.4922s-2.6797-0.57031-3.6016-1.4922c-0.92187-0.92188-1.4922-2.1953-1.4922-3.6016s0.57031-2.6797 1.4922-3.6016c0.92188-0.92188 2.1953-1.4922 3.6016-1.4922zm-25.703 27.867c1.3711 0 2.6133 0.55469 3.5117 1.4531 0.89844 0.89844 1.4531 2.1406 1.4531 3.5117s-0.55469 2.6133-1.4531 3.5117c-0.89844 0.89844-2.1406 1.4531-3.5117 1.4531s-2.6133-0.55469-3.5117-1.4531c-0.89844-0.89844-1.4531-2.1406-1.4531-3.5117s0.55469-2.6133 1.4531-3.5117c0.89844-0.89844 2.1406-1.4531 3.5117-1.4531zm11.789 7.6016c1.4141 0 2.6914 0.57422 3.6172 1.5 0.92578 0.92578 1.5 2.2031 1.5 3.6172 0 1.4141-0.57422 2.6914-1.5 3.6172s-2.2031 1.5-3.6172 1.5c-1.4141 0-2.6914-0.57422-3.6172-1.5s-1.5-2.2031-1.5-3.6172c0-1.4141 0.57422-2.6914 1.5-3.6172 0.92578-0.92578 2.2031-1.5 3.6172-1.5zm29.105-34.223c1.2617 0 2.4023 0.51172 3.2305 1.3398s1.3398 1.9688 1.3398 3.2305-0.51172 2.4023-1.3398 3.2305-1.9688 1.3398-3.2305 1.3398-2.4023-0.51172-3.2305-1.3398c-0.82812-0.82812-1.3398-1.9688-1.3398-3.2305s0.51172-2.4023 1.3398-3.2305c0.82813-0.82812 1.9688-1.3398 3.2305-1.3398zm11.164 8.4922c1.1562 0 2.2031 0.46875 2.957 1.2266 0.75781 0.75781 1.2266 1.8047 1.2266 2.957 0 1.1562-0.46875 2.2031-1.2266 2.957-0.75781 0.75781-1.8047 1.2266-2.957 1.2266-1.1562 0-2.2031-0.46875-2.957-1.2266-0.75781-0.75781-1.2266-1.8047-1.2266-2.957 0-1.1562 0.46875-2.2031 1.2266-2.957 0.75781-0.75781 1.8047-1.2266 2.957-1.2266zm-5.8828 29.633c-0.47266 1.6289-1.2578 3.2891-2.6953 4.9258 2.0352 1.8281 4.0586 3.6172 6.0664 5.3594 2.0781 1.8047 4.1719 3.5977 6.2852 5.3672 0.95312 0.73438 1.8945 1.0234 2.5703 0.93359 0.25-0.03125 0.45703-0.11719 0.60156-0.25391 0.13672-0.125 0.22266-0.30469 0.24219-0.53125 0.054687-0.57031-0.25781-1.3984-1.1133-2.457-2.0117-2.3203-4.043-4.625-6.0938-6.9102-1.9375-2.1602-3.8906-4.3086-5.8594-6.4414zm-43.688-35.367c0.15234-1.2891 0.69531-2.2227 1.4922-2.8438 0.80469-0.62891 1.8555-0.92969 3.0234-0.95703 0.058594 0 0.11719-0.003907 0.17969-0.003907 0.003906-0.058593 0.023437-0.11328 0.054687-0.16406 0.19531-0.91797 0.15625-1.8242-0.078125-2.6953-0.47656-1.7812-1.7461-3.4453-3.4336-4.8242-1.707-1.3984-3.8281-2.5039-5.9805-3.1523-2.0352-0.61328-4.0859-0.82031-5.8242-0.47656 0.15625 0.32031 0.30078 0.63281 0.4375 0.94531 2.3672 0.39062 3.8516 2.3203 5.5898 4.5703 1.0781 1.3984 2.2578 2.9258 3.793 4.2539 0.16797 0.14453 0.1875 0.40234 0.042968 0.57031-0.14453 0.16797-0.40234 0.1875-0.57031 0.042969-1.5977-1.3789-2.8047-2.9414-3.9062-4.3711-1.4922-1.9336-2.7852-3.6094-4.5703-4.1445 0.61719 1.582 1.0039 3.0469 1.3633 4.3984 0.89453 3.3672 1.5977 6.0156 5.3203 7.9766 0.60547 0.32031 1.1914 0.54297 1.75 0.68359 0.46484 0.11719 0.90625 0.17969 1.3203 0.19141zm-0.042969 0.94531v-0.13672c-0.375-0.011719-0.76172-0.058594-1.1602-0.14062-8.2617 6.1055-12.234 14.93-12.312 23.41-0.039062 4.3906 0.96484 8.6914 2.9609 12.469 1.9922 3.7734 4.9688 7.0273 8.8828 9.3398 7.3398 4.3359 17.973 5.3555 31.543 0.25781 12.551-4.7109 13.203-10.34 13.766-15.191 0.56641-4.8984 1.0469-9.0469 12.145-10.863 5.3125-0.86719 8.2305-3.0273 9.168-5.7812 0.75391-2.2188 0.23828-4.8438-1.3359-7.5156-1.6055-2.7227-4.3008-5.4766-7.875-7.8828-10.676-7.1992-29.098-11.258-49.48-2.1484 5.5273 5.1523 11 10.395 16.375 15.703 2.457 2.4258 4.8906 4.8633 7.3008 7.3125 0.046875-0.003906 0.097656-0.003906 0.15234-0.007813 0.13672-0.003906 0.25-0.007812 0.33984-0.007812 2.3477 0 4.4727 0.87891 6.0117 2.2969 1.5508 1.4258 2.5078 3.3984 2.5078 5.582 0 2.1797-0.95703 4.1523-2.5078 5.582-1.543 1.418-3.668 2.2969-6.0117 2.2969-2.3477 0-4.4727-0.87891-6.0117-2.2969-1.5508-1.4258-2.5078-3.3984-2.5078-5.582 0-0.64062 0.085938-1.2695 0.24219-1.8711 0.13672-0.51562 0.32812-1.0117 0.56641-1.4805-1.8945-1.8438-3.7773-3.6992-5.6562-5.5703-5.7578-5.7344-11.43-11.586-16.984-17.484-0.078125-0.082031-0.11328-0.18359-0.10938-0.28906zm11.531 1.8555c-0.19141-0.015625-0.38281-0.019531-0.56641-0.015625-1.0508 0.027344-2.0078 0.36719-2.7305 0.99609-0.71875 0.62891-1.2109 1.5547-1.332 2.7539-0.019531 0.19922-0.03125 0.40625-0.03125 0.62109 3.5625 3.6992 7.1641 7.3672 10.797 10.984 1.9414 1.9336 3.8945 3.8555 5.8555 5.7617 0.011719 0.011718 0.023438 0.019531 0.03125 0.03125 3.4727 3.375 6.9688 6.7031 10.484 9.9648 0.70312-0.33594 1.3398-0.76953 1.8945-1.2773 1-0.91797 1.7227-2.0898 2.0508-3.3984-2.7773-2.9258-5.5898-5.8398-8.4375-8.7344-0.011719-0.007812-0.019532-0.019531-0.027344-0.027343-2.4453-2.4844-4.9141-4.9609-7.4062-7.418-3.4844-3.4414-7.0117-6.8594-10.574-10.242zm-5.4258 3.5586c-1.7773-1.8516-3.543-3.707-5.2969-5.5703 0-0.21484 0.011719-0.41797 0.03125-0.61328 0.11328-1.1016 0.55078-1.8789 1.1953-2.3828 0.66016-0.51562 1.5469-0.76172 2.543-0.78516 0.14453-0.003906 0.29297-0.003906 0.44141 0.003907 0.015625 0 0.03125 0.003906 0.046875 0.003906 0.10938 0.003906 0.22266 0.011719 0.33594 0.023437 1.7656 1.6445 3.5234 3.293 5.2734 4.9531-1.1367 0.078124-2.1719 0.48047-2.9766 1.1836-0.85156 0.74219-1.4336 1.8164-1.5938 3.1875z" fill-rule="evenodd"/>
</svg>
