<?xml version="1.0" encoding="utf-8"?>
<svg width="800px" height="800px" viewBox="0 0 24 24" fill="none" xmlns="http://www.w3.org/2000/svg">
<path d="M18.9445 9.1875L14.9445 5.1875M18.9445 9.1875L13.946 14.1859C13.2873 14.8446 12.4878 15.3646 11.5699 15.5229C10.6431 15.6828 9.49294 15.736 8.94444 15.1875C8.39595 14.639 8.44915 13.4888 8.609 12.562C8.76731 11.6441 9.28735 10.8446 9.946 10.1859L14.9445 5.1875M18.9445 9.1875C18.9445 9.1875 21.9444 6.1875 19.9444 4.1875C17.9444 2.1875 14.9445 5.1875 14.9445 5.1875M20.5 12C20.5 18.5 18.5 20.5 12 20.5C5.5 20.5 3.5 18.5 3.5 12C3.5 5.5 5.5 3.5 12 3.5" stroke="#000000" stroke-width="1.5" stroke-linecap="round" stroke-linejoin="round"/>
</svg>