<svg xmlns="http://www.w3.org/2000/svg" version="1.1" viewBox="-5.0 -10.0 110.0 135.0"  width="24" height="24">
 <path d="m70.93 77.648c-2.8125 0-5.1641 1.9023-5.8984 4.4805h-7.8203c-3.043 0-5.5156-2.4688-5.5234-5.5117v-0.015626-0.58203c0.75781-0.039062 1.5078-0.078125 2.2578-0.16797 7.8984-0.95312 15.242-4.7109 20.559-10.66 0.007813-0.007812 0.015625-0.023437 0.023438-0.03125l1.0898-1.2227-0.046876-0.042969c4.7969-5.8555 7.4453-13.18 7.4453-20.828 0-7.6484-2.6484-14.934-7.4375-20.777l0.042969-0.039062-1.1094-1.25c-6.1914-6.9766-15.133-10.977-24.539-10.977-1.1719 0-2.3359 0.0625-3.4922 0.18359-8.0742 0.86328-15.586 4.6836-20.992 10.777 0 0-0.003906 0.007813-0.007812 0.007813 0 0-0.003907 0.003906-0.007813 0.007812l-1.1055 1.25 0.042968 0.039062c-4.7891 5.8555-7.4453 13.156-7.4453 20.777s2.6562 14.977 7.4492 20.828l-0.042968 0.039063 1.1016 1.2383c5.7969 6.5352 14.047 10.402 22.828 10.848v0.57812 0.015625c-0.007812 3.0391-2.4844 5.5117-5.5273 5.5117h-7.8164c-0.74219-2.5781-3.0938-4.4805-5.9023-4.4805-3.3984 0-6.1641 2.7656-6.1641 6.1641 0 3.3984 2.7656 6.168 6.1641 6.168 2.8125 0 5.1641-1.9023 5.9023-4.4844h7.8164c2.9766 0 5.5977-1.4805 7.2109-3.7266 1.6172 2.2461 4.2383 3.7266 7.2109 3.7266h7.8203c0.73828 2.5781 3.0898 4.4844 5.8984 4.4844 3.3984 0 6.168-2.7695 6.168-6.168 0-3.3984-2.7695-6.1641-6.168-6.1641zm-31.055-6.7109c-0.53906-0.19531-1.0742-0.39062-1.5977-0.61719-0.39844-0.16797-0.78125-0.36328-1.168-0.55078-0.50781-0.24219-1.0117-0.49219-1.5078-0.76953-0.37891-0.21094-0.74609-0.4375-1.1172-0.66406-0.47656-0.29688-0.95312-0.60156-1.4141-0.92188-0.35156-0.24609-0.69922-0.50781-1.043-0.77344-0.44531-0.34375-0.88281-0.69922-1.3125-1.0703-0.33203-0.28906-0.65625-0.58203-0.97656-0.88281-0.17969-0.16797-0.34375-0.35156-0.51953-0.52344 2.0703-1.6484 4.5234-2.957 7.1875-4.043 1.3438 4.75 3.2383 8.6875 5.5195 11.469-0.28516-0.082032-0.57422-0.14062-0.85156-0.23047-0.40625-0.12891-0.80078-0.28125-1.1992-0.42969zm-10.117-49.469c0.32031-0.30469 0.64453-0.59766 0.97656-0.88281 0.42578-0.36719 0.85938-0.72266 1.3047-1.0664 0.35156-0.26953 0.70313-0.53516 1.0664-0.78906 0.45703-0.32031 0.92188-0.61719 1.3984-0.91406 0.375-0.23047 0.75-0.46094 1.1328-0.67969 0.48828-0.27344 0.98438-0.51953 1.4844-0.76172 0.39453-0.19141 0.78516-0.38672 1.1875-0.55859 0.51953-0.22656 1.0547-0.41797 1.5859-0.61328 0.40234-0.14844 0.80078-0.30469 1.207-0.42969 0.28125-0.089844 0.57031-0.14844 0.85938-0.23047-2.2891 2.7812-4.1875 6.7227-5.5352 11.477-2.6523-1.0859-5.1016-2.3828-7.1875-4.0156 0.17969-0.17969 0.34766-0.36328 0.52734-0.53516zm30.309-6.2734c0.55078 0.19922 1.1016 0.39844 1.6367 0.63281 0.38281 0.16406 0.75781 0.35156 1.1367 0.53906 0.52344 0.25 1.0391 0.50781 1.543 0.78906 0.36719 0.20703 0.72656 0.42969 1.0859 0.64844 0.49219 0.30469 0.97656 0.61719 1.4531 0.94531 0.34766 0.24219 0.68359 0.49609 1.0234 0.75391 0.46094 0.35156 0.90625 0.71484 1.3438 1.0977 0.32422 0.28125 0.64453 0.57031 0.95703 0.86719 0.17969 0.17188 0.35156 0.35547 0.52734 0.53516-2.0859 1.6367-4.5391 2.9375-7.1914 4.0234-1.3477-4.7539-3.2461-8.6914-5.5312-11.473 0.28516 0.082031 0.57031 0.14062 0.85156 0.23047 0.39453 0.125 0.77734 0.27344 1.1641 0.41406zm10.188 49.492c-0.32422 0.30469-0.65234 0.60156-0.99219 0.89062-0.42578 0.36719-0.85938 0.71484-1.3047 1.0547-0.35156 0.26953-0.70312 0.53125-1.0664 0.78125-0.46094 0.32031-0.92969 0.62109-1.4102 0.91406-0.37109 0.22656-0.74219 0.45703-1.125 0.66797-0.49609 0.27344-1.0039 0.52344-1.5156 0.77344-0.38281 0.18359-0.76953 0.375-1.1602 0.54297-0.53125 0.22656-1.0781 0.42969-1.625 0.625-0.39063 0.14062-0.77734 0.29297-1.1758 0.41797-0.26562 0.085937-0.53906 0.14062-0.80859 0.21875 2.2734-2.7812 4.1641-6.7148 5.5078-11.457 2.6641 1.0859 5.1172 2.3945 7.1914 4.043-0.17578 0.17578-0.34375 0.35547-0.52344 0.52734zm-18.57 7.7227v-14.891c3.0039 0.13281 5.9609 0.60938 8.7617 1.4336-2.0312 7.3828-5.3555 12.227-8.7617 13.457zm9.5469-16.734c-3.0625-0.88281-6.2852-1.3906-9.5469-1.5195v-9.3867h10.711c-0.09375 3.9766-0.50391 7.6367-1.1641 10.91zm-9.5469-14.277v-9.4102c3.2969-0.13281 6.4922-0.64062 9.5391-1.5234 0.66406 3.2773 1.0742 6.9492 1.168 10.934h-10.711zm0-12.789 0.003906-14.859c3.4023 1.2266 6.7227 6.0625 8.7539 13.43-2.7969 0.82031-5.7578 1.2969-8.7539 1.4297zm-3.3711-14.859v14.859c-2.9922-0.12891-5.9531-0.60547-8.7578-1.4297 2.0312-7.3672 5.3516-12.203 8.7578-13.43zm-9.543 16.711c3.0547 0.88672 6.25 1.3984 9.543 1.5273v9.4102h-10.711c0.09375-3.9883 0.50391-7.6602 1.168-10.938zm9.543 14.305v9.3906c-3.2578 0.13281-6.4766 0.63672-9.5508 1.5234-0.66406-3.2734-1.0703-6.9336-1.1641-10.91h10.711zm0 12.754v14.891c-3.4062-1.2266-6.7344-6.0703-8.7656-13.457 2.8086-0.82812 5.7695-1.3047 8.7656-1.4336zm16.105-0.75781c0.78125-3.6719 1.2422-7.7109 1.3438-11.996h13.809c-0.35156 6.2188-2.6328 12.117-6.5508 16.93-2.4922-2.0117-5.3672-3.6641-8.6016-4.9336zm1.3438-15.367c-0.10156-4.293-0.56641-8.3477-1.3516-12.023 3.2188-1.2617 6.1016-2.9023 8.6016-4.9023 3.9219 4.8125 6.2109 10.711 6.5547 16.926h-13.812zm-30.18-12.023c-0.78516 3.6797-1.25 7.7305-1.3516 12.023h-13.805c0.35156-6.207 2.6328-12.102 6.5625-16.926 2.5 1.9961 5.3789 3.6367 8.5977 4.8984zm-1.3516 15.395c0.10156 4.2852 0.5625 8.3242 1.3438 11.996-3.2344 1.2695-6.1133 2.918-8.6016 4.9297-3.9141-4.8086-6.1953-10.711-6.5547-16.93h13.805z"/>
</svg>
