<svg
        xmlns="http://www.w3.org/2000/svg"
        enableBackground="new 0 0 2000 2000"
        viewBox="0 0 2000 2500"
>
    <path d="M1740.79 1461.68c0-26.31-10.12-51.16-28.5-69.98-18.19-18.63-42.49-29.31-68.48-30.13-.41-.03-.82-.06-1.23-.06h-185.9c16.41-18.63 26.38-43.07 26.38-69.79 0-27.77-10.68-54-30.08-73.87a107.06 107.06 0 00-16.2-13.6c28.74-18.91 47.75-51.45 47.75-88.35 0-27.76-10.68-53.99-30.08-73.85a105.885 105.885 0 00-17.21-14.27c30.66-20.22 50.94-54.96 50.94-94.36 0-15.92-3.45-31.88-9.99-46.4a17.8 17.8 0 00-1.69-4.36c-20.41-37.08-48.69-66.1-84.04-86.26-35.21-20.08-75.54-30.26-119.86-30.26h-.17l-281.1 2.69c2.03-6.63 4.17-13.43 6.35-20.37 12.62-40.08 26.92-85.5 31.01-134.35 4.78-57.06-5.32-108.07-30.89-155.88-32.85-92.12-113.55-119.55-176.61-98.95-26.69 8.72-48.6 25.69-61.68 47.78-14.64 24.71-17.49 53.82-8.23 84.18.03.11.07.22.1.32 36.54 112.24 7.15 228.71-74.86 296.86-68.96 52.56-100.95 116.76-138.44 208.09-9.25-33.36-39.87-57.91-76.13-57.91H338.41c-43.56 0-78.99 35.43-78.99 78.99v547.96c-.13.86-.21 1.73-.21 2.62 0 43.37 35.13 78.68 78.43 78.98.19.01.37.03.56.03h123.97c.19 0 .37-.02.56-.03 42-.29 76.31-33.52 78.34-75.1 88.52 42.24 167.85 56.51 241.95 56.51 78.33 0 150.82-15.94 222.1-31.62 67.87-14.93 131.97-29.03 200.32-29.85l435.41-5.25c.04 0 .08-.01.13-.01 55.06-.17 99.81-45.03 99.81-100.15zm-363.46-100.3c-.69 0-1.36.05-2.03.12h-206.1c-.67-.07-1.34-.12-2.03-.12-38.41 0-69.66-31.25-69.66-69.67 0-38.15 29.87-68.74 68.01-69.65 1.27-.03 2.5-.19 3.69-.47h206.09c1.19.28 2.42.44 3.69.47 37.5.89 68.01 32.13 68.01 69.65-.01 38.42-31.26 69.67-69.67 69.67zm1.66-175.84h-211.81c-1.5 0-2.94.2-4.34.55-2.17.09-4.32.24-6.47.46-1.84-.64-3.82-1-5.88-1-38.4 0-69.64-31.24-69.64-69.64 0-37.53 28.93-67.72 66.18-69.54h228.06c.04 0 .08.01.12.01.16 0 .32-.01.48-.01h6.57c37.25 1.82 66.18 32.01 66.18 69.54.01 38.34-31.13 69.54-69.45 69.63zm-916.82 425.57c-.14 0-.28.02-.42.02H338.62c-.14 0-.28-.02-.42-.02-22.92 0-41.69-18.05-42.87-40.67.09-.73.15-1.47.15-2.23v-550.64c.02-23.66 19.27-42.9 42.93-42.9h123.54c23.67 0 42.93 19.26 42.93 42.93v550.61c0 .76.06 1.5.15 2.23-1.17 22.62-19.95 40.67-42.86 40.67zm1178.45-85.32c-.04 0-.07.01-.1.01h-.11l-435.41 5.25c-72.05.87-140.97 16.03-207.63 30.69-136.61 30.05-277.8 61.1-456.42-29.94v-448.2c1.11-1.36 2.03-2.91 2.73-4.62 3.67-9.07 7.21-17.89 10.66-26.48 45.41-113.02 72.82-181.23 144.33-235.61.2-.15.39-.31.59-.47 45-37.28 77.17-87.88 93.01-146.35 16.38-60.44 14.12-125.97-6.53-189.5-14.61-48.19 15.99-76.99 46.67-87.02 45.24-14.78 105.79 3.29 131.84 77.93.32.91.71 1.79 1.17 2.64 51.1 94.44 22.82 184.26-2.13 263.51-16.03 50.92-29.87 94.89-18.4 131.52 2.98 9.5 13.09 14.8 22.6 11.82 9.5-2.98 14.79-13.09 11.82-22.6-4.45-14.2-2.73-32.39 2.07-53.38l291.26-2.78c75.19.01 135.65 33.73 170.65 95 .25.74.54 1.48.89 2.2 5.19 10.52 7.94 22.29 7.94 34.02 0 42.32-34.36 76.75-76.65 76.88h-225.38c-.55-.05-1.1-.08-1.66-.08-.14 0-.29 0-.44.01-.64.01-1.28.04-1.92.07-34.19-.33-61.91-28.24-61.91-62.51 0-34.47 28.05-62.52 62.52-62.52h158.44c9.96 0 18.03-8.07 18.03-18.03s-8.07-18.03-18.03-18.03h-158.44c-54.36 0-98.58 44.22-98.58 98.58 0 33.27 16.57 62.75 41.89 80.61 0 .27.03.52.04.79a106.61 106.61 0 00-15.15 12.87c-19.4 19.86-30.08 46.09-30.08 73.85 0 40.4 22.79 75.58 56.19 93.36-3.29 2.65-6.45 5.52-9.45 8.59-19.4 19.87-30.08 46.1-30.08 73.86 0 57.56 46.23 104.52 103.51 105.7.73.09 1.46.15 2.21.15h474.66c.1 0 .2.02.31.02 35.09.83 62.58 28.99 62.58 64.09 0 35.34-28.76 64.1-64.11 64.1z"></path>
</svg>