<svg xmlns="http://www.w3.org/2000/svg" xmlns:xlink="http://www.w3.org/1999/xlink" version="1.1" x="0px" y="0px" viewBox="0 0 2000 2500" style="enable-background:new 0 0 2000 2000;" xml:space="preserve"><path d="M1740.79,1461.68c0-26.31-10.12-51.16-28.5-69.98c-18.19-18.63-42.49-29.31-68.48-30.13c-0.41-0.03-0.82-0.06-1.23-0.06  h-185.9c16.41-18.63,26.38-43.07,26.38-69.79c0-27.77-10.68-54-30.08-73.87c-4.99-5.11-10.42-9.65-16.2-13.6  c28.74-18.91,47.75-51.45,47.75-88.35c0-27.76-10.68-53.99-30.08-73.85c-5.28-5.41-11.05-10.18-17.21-14.27  c30.66-20.22,50.94-54.96,50.94-94.36c0-15.92-3.45-31.88-9.99-46.4c-0.37-1.49-0.91-2.95-1.69-4.36  c-20.41-37.08-48.69-66.1-84.04-86.26c-35.21-20.08-75.54-30.26-119.86-30.26h0c0,0,0,0,0,0c0,0,0,0,0,0s0,0,0,0  c-0.06,0-0.11,0-0.17,0l-281.1,2.69c2.03-6.63,4.17-13.43,6.35-20.37c12.62-40.08,26.92-85.5,31.01-134.35  c4.78-57.06-5.32-108.07-30.89-155.88c-32.85-92.12-113.55-119.55-176.61-98.95c-26.69,8.72-48.6,25.69-61.68,47.78  c-14.64,24.71-17.49,53.82-8.23,84.18c0.03,0.11,0.07,0.22,0.1,0.32c36.54,112.24,7.15,228.71-74.86,296.86  c-68.96,52.56-100.95,116.76-138.44,208.09c-9.25-33.36-39.87-57.91-76.13-57.91H338.41c-43.56,0-78.99,35.43-78.99,78.99  c0,0.02,0,0.03,0,0.04v547.92c-0.13,0.86-0.21,1.73-0.21,2.62c0,43.37,35.13,78.68,78.43,78.98c0.19,0.01,0.37,0.03,0.56,0.03  h123.97c0.19,0,0.37-0.02,0.56-0.03c42-0.29,76.31-33.52,78.34-75.1c88.52,42.24,167.85,56.51,241.95,56.51  c78.33,0,150.82-15.94,222.1-31.62c67.87-14.93,131.97-29.03,200.32-29.85l435.41-5.25c0.04,0,0.08-0.01,0.13-0.01  C1696.04,1561.66,1740.79,1516.8,1740.79,1461.68z M1377.33,1361.38c-0.69,0-1.36,0.05-2.03,0.12H1169.2  c-0.67-0.07-1.34-0.12-2.03-0.12c-38.41,0-69.66-31.25-69.66-69.67c0-38.15,29.87-68.74,68.01-69.65c1.27-0.03,2.5-0.19,3.69-0.47  h206.09c1.19,0.28,2.42,0.44,3.69,0.47c37.5,0.89,68.01,32.13,68.01,69.65C1446.99,1330.13,1415.74,1361.38,1377.33,1361.38z   M1378.99,1185.54h-211.81c-1.5,0-2.94,0.2-4.34,0.55c-2.17,0.09-4.32,0.24-6.47,0.46c-1.84-0.64-3.82-1-5.88-1  c-38.4,0-69.64-31.24-69.64-69.64c0-37.53,28.93-67.72,66.18-69.54h228.06c0.04,0,0.08,0.01,0.12,0.01c0.16,0,0.32-0.01,0.48-0.01  h6.57c37.25,1.82,66.18,32.01,66.18,69.54C1448.45,1154.25,1417.31,1185.45,1378.99,1185.54z M462.17,1611.11  c-0.14,0-0.28,0.02-0.42,0.02H338.62c-0.14,0-0.28-0.02-0.42-0.02c-22.92,0-41.69-18.05-42.87-40.67c0.09-0.73,0.15-1.47,0.15-2.23  v-550.61c0-0.01,0-0.02,0-0.03c0.02-23.66,19.27-42.9,42.93-42.9h123.54c23.67,0,42.93,19.26,42.93,42.93v550.61  c0,0.76,0.06,1.5,0.15,2.23C503.86,1593.06,485.08,1611.11,462.17,1611.11z M1640.62,1525.79c-0.04,0-0.07,0.01-0.1,0.01  c-0.04,0-0.08,0-0.11,0l-435.41,5.25c-72.05,0.87-140.97,16.03-207.63,30.69c-136.61,30.05-277.8,61.1-456.42-29.94V1083.6  c1.11-1.36,2.03-2.91,2.73-4.62c3.67-9.07,7.21-17.89,10.66-26.48c45.41-113.02,72.82-181.23,144.33-235.61  c0.2-0.15,0.39-0.31,0.59-0.47c45-37.28,77.17-87.88,93.01-146.35c16.38-60.44,14.12-125.97-6.53-189.5  c-14.61-48.19,15.99-76.99,46.67-87.02c45.24-14.78,105.79,3.29,131.84,77.93c0.32,0.91,0.71,1.79,1.17,2.64  c51.1,94.44,22.82,184.26-2.13,263.51c-16.03,50.92-29.87,94.89-18.4,131.52c2.98,9.5,13.09,14.8,22.6,11.82  c9.5-2.98,14.79-13.09,11.82-22.6c-4.45-14.2-2.73-32.39,2.07-53.38l291.26-2.78c75.19,0.01,135.65,33.73,170.65,95  c0.25,0.74,0.54,1.48,0.89,2.2c5.19,10.52,7.94,22.29,7.94,34.02c0,42.32-34.36,76.75-76.65,76.88h-225.38  c-0.55-0.05-1.1-0.08-1.66-0.08c-0.14,0-0.29,0-0.44,0.01c-0.64,0.01-1.28,0.04-1.92,0.07c-34.19-0.33-61.91-28.24-61.91-62.51  c0-34.47,28.05-62.52,62.52-62.52h158.44c9.96,0,18.03-8.07,18.03-18.03s-8.07-18.03-18.03-18.03h-158.44  c-54.36,0-98.58,44.22-98.58,98.58c0,33.27,16.57,62.75,41.89,80.61c0,0.27,0.03,0.52,0.04,0.79c-5.39,3.77-10.46,8.07-15.15,12.87  c-19.4,19.86-30.08,46.09-30.08,73.85c0,40.4,22.79,75.58,56.19,93.36c-3.29,2.65-6.45,5.52-9.45,8.59  c-19.4,19.87-30.08,46.1-30.08,73.86c0,57.56,46.23,104.52,103.51,105.7c0.73,0.09,1.46,0.15,2.21,0.15h474.66  c0.1,0,0.2,0.02,0.31,0.02c35.09,0.83,62.58,28.99,62.58,64.09C1704.73,1497.03,1675.97,1525.79,1640.62,1525.79z"/><text x="0" y="2015" fill="#000000" font-size="5px" font-weight="bold" font-family="'Helvetica Neue', Helvetica, Arial-Unicode, Arial, Sans-serif">Created by Rifai</text><text x="0" y="2020" fill="#000000" font-size="5px" font-weight="bold" font-family="'Helvetica Neue', Helvetica, Arial-Unicode, Arial, Sans-serif">from the Noun Project</text></svg>