<svg
    xmlns="http://www.w3.org/2000/svg"
    width="72"
    height="25"
    fill="none"
    viewBox="0 0 72 25"
>
    <path
        stroke="#000"
        strokeLinecap="round"
        strokeLinejoin="round"
        strokeWidth="2"
        d="M20.791 12.982c.244-.209.366-.313.411-.438a.5.5 0 000-.338c-.045-.124-.167-.23-.41-.438L12.32 4.507c-.42-.36-.63-.54-.809-.545a.5.5 0 00-.4.184C11 4.284 11 4.561 11 5.114V9.41a9.666 9.666 0 00-8 9.516v.612a11.401 11.401 0 018-4.093v4.19c0 .554 0 .83.112.969a.5.5 0 00.4.184c.178-.005.388-.185.809-.545l8.47-7.26z"
    ></path>
    <path
        fill="#000"
        d="M38.538 10.492a1.357 1.357 0 00-.587-1.014c-.341-.242-.785-.363-1.332-.363-.385 0-.715.058-.99.174a1.465 1.465 0 00-.631.472c-.146.2-.22.426-.224.682 0 .212.048.396.144.551.1.156.234.289.403.398.17.106.356.196.562.269.205.072.412.134.621.184l.955.238c.384.09.754.21 1.108.363.358.152.678.345.96.577.285.232.51.512.676.84.166.328.249.713.249 1.153 0 .597-.153 1.122-.458 1.576-.305.451-.745.804-1.322 1.06-.573.251-1.268.377-2.083.377-.792 0-1.48-.122-2.063-.368-.58-.245-1.035-.603-1.363-1.074-.324-.47-.5-1.044-.527-1.72h1.815c.026.355.136.65.328.885.192.236.443.411.75.527.312.116.66.174 1.045.174.4 0 .752-.06 1.054-.179.305-.123.543-.292.716-.507.172-.219.26-.474.263-.766a.973.973 0 00-.233-.656 1.712 1.712 0 00-.642-.437 6.178 6.178 0 00-.954-.319l-1.159-.298c-.838-.215-1.501-.542-1.988-.98-.484-.44-.726-1.025-.726-1.754 0-.6.162-1.125.487-1.576.328-.45.774-.8 1.337-1.05.564-.251 1.202-.377 1.915-.377.722 0 1.355.126 1.899.378.547.248.976.595 1.287 1.039.312.44.473.948.483 1.521h-1.775zm5.278 2.909v4.474h-1.8V7.693h1.76v3.843h.09c.179-.43.456-.77.83-1.019.378-.252.859-.378 1.442-.378.53 0 .993.111 1.387.333.394.222.7.547.915.975.219.427.328.95.328 1.566v4.862h-1.8v-4.584c0-.514-.132-.913-.398-1.198-.261-.288-.63-.432-1.103-.432-.318 0-.603.07-.855.208a1.462 1.462 0 00-.587.592c-.14.258-.209.572-.209.94zm8.984 4.628c-.484 0-.92-.086-1.308-.258a2.134 2.134 0 01-.914-.776c-.223-.341-.334-.762-.334-1.263 0-.43.08-.787.24-1.069.158-.281.375-.507.65-.676.276-.169.585-.296.93-.383.348-.09.708-.154 1.079-.193.447-.047.81-.088 1.089-.125.278-.04.48-.1.606-.179.13-.083.194-.21.194-.383v-.03c0-.374-.11-.664-.333-.87-.222-.205-.542-.308-.96-.308-.44 0-.79.097-1.048.289a1.43 1.43 0 00-.518.68l-1.68-.238c.133-.464.351-.852.656-1.163.305-.315.678-.55 1.119-.706.44-.16.928-.239 1.462-.239.367 0 .734.043 1.098.13a3.09 3.09 0 011 .427c.301.196.543.462.725.8.186.338.279.761.279 1.268v5.111h-1.73v-1.049h-.06c-.11.212-.263.411-.462.597-.196.182-.443.33-.741.442-.295.11-.641.164-1.04.164zm.467-1.322c.361 0 .675-.072.94-.214.265-.146.469-.338.611-.577a1.47 1.47 0 00.22-.78v-.9a.847.847 0 01-.29.13c-.132.039-.281.074-.447.104-.165.03-.33.056-.492.079l-.422.06a3.143 3.143 0 00-.721.179c-.212.082-.38.198-.502.348-.123.146-.184.334-.184.566 0 .332.12.582.363.751.241.17.55.254.924.254zm5.374 1.168v-7.636h1.745v1.272h.08c.14-.44.378-.78.716-1.019a1.97 1.97 0 011.168-.363c.1 0 .21.005.333.015.126.007.23.018.314.035v1.655a1.894 1.894 0 00-.363-.07 3.34 3.34 0 00-.473-.034 1.82 1.82 0 00-.885.214c-.258.14-.462.333-.611.582-.15.248-.224.535-.224.86v4.489h-1.8zm8.617.15c-.765 0-1.426-.16-1.983-.478a3.233 3.233 0 01-1.278-1.362c-.298-.59-.447-1.285-.447-2.083 0-.786.149-1.475.447-2.069a3.384 3.384 0 011.263-1.392c.54-.334 1.175-.502 1.904-.502.47 0 .915.076 1.332.229.421.149.793.381 1.114.696.325.315.58.716.766 1.203.185.484.278 1.06.278 1.73v.552h-6.26v-1.213h4.535a1.936 1.936 0 00-.224-.92 1.627 1.627 0 00-.611-.641 1.72 1.72 0 00-.905-.234c-.368 0-.691.09-.97.269a1.85 1.85 0 00-.65.696c-.153.285-.231.598-.234.94v1.058c0 .444.08.825.243 1.144.162.315.39.556.681.726.292.165.633.248 1.024.248.262 0 .5-.036.711-.11.212-.075.396-.186.552-.332.156-.146.274-.327.353-.542l1.68.189a2.62 2.62 0 01-.606 1.163 2.958 2.958 0 01-1.133.766c-.461.179-.988.268-1.582.268z"
    ></path>
</svg>
