<svg xmlns="http://www.w3.org/2000/svg" version="1.1" viewBox="-5.0 -10.0 110.0 135.0"  width="24" height="24">
 <path d="m50 29.539c-12.371-0.007812-16.398-8.6719-26.43-8.6719-25.887 0-27.281 58.266-7.6914 58.266 12.621 0 13.934-20.641 23.457-20.641h21.328c9.5234 0 10.84 20.641 23.457 20.641 19.59 0 18.195-58.266-7.6914-58.266-10.031 0-14.059 8.6602-26.43 8.6719zm-26.344 0.44922c2.2578 0 4.1016 1.8477 4.1016 4.1016v3.5898h3.5898c2.2578 0 4.1016 1.8477 4.1016 4.1016 0 2.2578-1.8477 4.1016-4.1016 4.1016h-3.5898v3.5898c0 2.2578-1.8477 4.1016-4.1016 4.1016-2.2578 0-4.1016-1.8477-4.1016-4.1016v-3.5898h-3.5898c-2.2578 0-4.1016-1.8477-4.1016-4.1016 0-2.2578 1.8477-4.1016 4.1016-4.1016h3.5898v-3.5898c-0.003907-2.2578 1.8438-4.1016 4.1016-4.1016zm52.875 0.14062c2.0273 0 3.6719 1.6445 3.6719 3.6719 0 2.0273-1.6445 3.6719-3.6719 3.6719s-3.6719-1.6445-3.6719-3.6719c0-2.0273 1.6406-3.6719 3.6719-3.6719zm0 15.961c2.0273 0 3.6719 1.6445 3.6719 3.6719 0 2.0273-1.6445 3.6719-3.6719 3.6719s-3.6719-1.6445-3.6719-3.6719c0-2.0273 1.6406-3.6719 3.6719-3.6719zm11.648-4.3086c0 2.0273-1.6445 3.6719-3.6719 3.6719-2.0273 0-3.6719-1.6445-3.6719-3.6719s1.6445-3.6719 3.6719-3.6719c2.0312 0 3.6719 1.6445 3.6719 3.6719zm-15.957 0c0 2.0273-1.6445 3.6719-3.6719 3.6719-2.0273 0-3.6719-1.6445-3.6719-3.6719s1.6445-3.6719 3.6719-3.6719c2.0273 0 3.6719 1.6445 3.6719 3.6719z" fill-rule="evenodd"/>
</svg>
