<svg xmlns="http://www.w3.org/2000/svg" version="1.1" viewBox="-5.0 -10.0 110.0 135.0"  width="24" height="24">
 <path d="m81.992 86.227c0 4.8672-3.957 8.8242-8.8242 8.8242-4.8633 0-8.8242-3.9609-8.8242-8.8242 0-4.8633 3.9609-8.8242 8.8242-8.8242 4.8711 0 8.8242 3.957 8.8242 8.8242zm-28.996-65.266-14.609-0.082032c-0.53906 0.003906-0.97266 0.10938-1.4375 0.375l-13.852 7.8906c-0.69141 0.39453-1.1289 0.96484-1.3477 1.7305l-3.6211 13.238c-0.26953 0.98047-0.10156 1.9492 0.625 2.6836 0.78906 0.79688 2.0781 1.1523 3.1641 0.86719 1.0039-0.26172 1.6406-0.99609 1.9141-1.9844l2.8516-10.383c0.29688-1.0859 0.94141-1.9141 1.918-2.4688l8.5117-4.8516c0.09375-0.054687 0.19531-0.078124 0.30078-0.078124 0.10547 0 0.21875 0.03125 0.30859 0.082031 0.1875 0.10938 0.30078 0.3125 0.30078 0.52734l-0.14063 24.289c0 0.035156-0.003906 0.070313-0.015624 0.10156l-0.003907 0.011718-7.6797 35.281c-0.16016 0.73828-0.011719 1.5039 0.39844 2.1367 0.41797 0.64844 1.0703 1.0977 1.8242 1.2539l1.832 0.38672c1.543 0.32422 3.0703-0.69141 3.4062-2.2266l7.3438-33.719c0.0625-0.27734 0.3125-0.48047 0.59766-0.48047l12.816 0.074219c0.16016 0 0.31641 0.066406 0.42578 0.17969 0.11328 0.11328 0.17578 0.26953 0.17578 0.43359l-0.085937 15.035c-0.007813 1.5781 1.2656 2.875 2.8438 2.8828l1.8828 0.011718h0.019531c1.5742 0 2.8594-1.2773 2.8672-2.8516l0.11328-20.391c0.011719-0.76172-0.29297-1.4883-0.83203-2.0312s-1.2578-0.85156-2.0234-0.85547l-10.023-0.058594c-0.33203 0-0.60938-0.27344-0.60547-0.60938l0.10547-18.773c0.003906-0.21094 0.11719-0.41797 0.30859-0.52734 0.1875-0.10938 0.42188-0.10547 0.60938 0.003906l11.02 6.4453c0.91406 0.53516 1.9453 0.54297 2.8672 0.015625l11.762-6.7031c0.79688-0.45312 1.3398-1.1445 1.4336-2.0742 0.066406-0.64844-0.10547-1.3438-0.42969-1.9062-0.32031-0.5625-0.83203-1.0625-1.4219-1.3359-0.84375-0.39062-1.7227-0.27734-2.5156 0.17578l-8.1797 4.6641c-1.3047 0.74219-2.793 0.73438-4.0859-0.023437l-10.211-5.9727c-0.44922-0.26562-0.89062-0.38672-1.4258-0.39062zm-14.629-8.6758c0.027343-4.0508 3.3242-7.332 7.3789-7.332h0.039062c1.9648 0.011719 3.8164 0.78906 5.1992 2.1914 1.3828 1.4023 2.1406 3.2578 2.1328 5.2266-0.019532 4.0469-3.3203 7.332-7.3711 7.332h-0.039063c-1.9688-0.011719-3.8203-0.78906-5.207-2.1875-1.3867-1.4023-2.1484-3.2617-2.1328-5.2305z" fill-rule="evenodd"/>
</svg>
